<?xml version="1.0" encoding="UTF-8" standalone="no"?><!-- Generator: Gravit.io --><svg xmlns="http://www.w3.org/2000/svg" xmlns:xlink="http://www.w3.org/1999/xlink" style="isolation:isolate" viewBox="1021.5 1830.5 125 75" width="125pt" height="75pt"><defs><clipPath id="_clipPath_2SLcp7PKAJxrUPA3TROLX7EprTVcRCzQ"><rect x="1021.5" y="1830.5" width="125" height="75"/></clipPath></defs><g clip-path="url(#_clipPath_2SLcp7PKAJxrUPA3TROLX7EprTVcRCzQ)"><rect x="1021.5" y="1830.5" width="125" height="75" transform="matrix(1,0,0,1,0,0)" fill="none
"/><g><path d=" M 1113.393 1856.284 L 1124.632 1856.408 L 1126.731 1858.878 L 1126.731 1876.909 L 1125.496 1879.132 L 1084.865 1879.132 Q 1082.209 1875.89 1084.865 1873.08 L 1101.414 1873.08 L 1101.537 1867.893 Q 1099.421 1863.034 1096.753 1862.522 C 1096.612 1862.495 1096.479 1862.417 1096.35 1862.459 L 1087.335 1862.089 L 1086.1 1861.162 L 1084.865 1860.113 L 1084.865 1855.049 Q 1084.943 1853.511 1085.476 1853.938 C 1085.677 1854.099 1085.926 1854.469 1086.223 1855.049 L 1087.335 1856.902 L 1095.856 1856.902 Q 1102.988 1858.137 1105.86 1866.041 L 1105.86 1873.08 L 1112.035 1873.08 L 1111.417 1871.598 L 1111.417 1858.878 L 1113.393 1856.284 Z  M 1115.616 1862.212 L 1115.616 1872.216 L 1115.863 1872.833 L 1116.604 1873.08 L 1122.903 1873.08 L 1123.15 1863.324 L 1122.779 1862.583 L 1122.038 1862.212 L 1115.616 1862.212 Z " fill-rule="evenodd" fill="rgb(2,89,85)"/><ellipse vector-effect="non-scaling-stroke" cx="1088.8165017579981" cy="1847.8228677229436" rx="2.593500946614313" ry="2.7773653338701934" fill="rgb(186,91,53)"/><ellipse vector-effect="non-scaling-stroke" cx="1118.9813877680242" cy="1850.600233056814" rx="2.439125890268315" ry="2.7142296309721132" fill="rgb(196,94,54)"/><path d=" M 1065.969 1858.507 L 1073.626 1858.507 Q 1074.17 1858.775 1074.458 1858.933 C 1078.066 1860.912 1081.822 1864.421 1081.9 1867.646 Q 1082.024 1872.751 1081.9 1874.933 Q 1081.036 1878.555 1078.689 1879.502 L 1050.161 1879.132 L 1050.161 1882.466 Q 1046.374 1889.3 1041.269 1888.394 Q 1045.221 1885.595 1045.468 1882.466 Q 1045.715 1879.337 1045.468 1882.96 L 1045.715 1860.977 L 1050.161 1857.519 L 1049.914 1872.833 L 1075.725 1872.833 L 1075.725 1869.622 Q 1075.89 1866.123 1072.638 1865.423 L 1064.856 1865.222 L 1062.201 1865.153 L 1058.312 1865.053 L 1056.953 1863.324 L 1056.953 1858.878 Q 1073.214 1849.492 1074.984 1838.5 Q 1075.561 1852.209 1065.969 1858.507 Z " fill="rgb(2,89,85)"/></g></g></svg>